<mxfile host="app.diagrams.net" modified="2023-10-29T09:48:54.172Z" agent="Mozilla/5.0 (Macintosh; Intel Mac OS X 10_15_7) AppleWebKit/605.1.15 (KHTML, like Gecko) Version/17.0 Safari/605.1.15" version="22.0.8" etag="ji-Ob354Xnbuw2vnPeFL" type="github">
  <diagram name="Page-1" id="oVE0rl8L0p267AWgbQCf">
    <mxGraphModel>
      <root>
        <mxCell id="0" />
        <mxCell id="1" parent="0" />
      </root>
    </mxGraphModel>
  </diagram>
</mxfile>
